{
	"asset":{
		"generator":"Khronos glTF Blender I/O v4.1.62",
		"version":"2.0"
	},
	"scene":0,
	"scenes":[
		{
			"name":"Scene",
			"nodes":[
				5
			]
		}
	],
	"nodes":[
		{
			"mesh":0,
			"name":"AM115_026_22_Material #17_0",
			"translation":[
				132.79393005371094,
				-109.00618743896484,
				-69.48387145996094
			]
		},
		{
			"children":[
				0
			],
			"name":"AM115_026_22",
			"translation":[
				-132.79393005371094,
				109.00618743896484,
				69.4838638305664
			]
		},
		{
			"children":[
				1
			],
			"name":"AM115_026",
			"rotation":[
				-0.5,
				0.5,
				0.5,
				0.5
			]
		},
		{
			"children":[
				2
			],
			"name":"RootNode"
		},
		{
			"children":[
				3
			],
			"name":"eeff7b40aecd4dd1a8f4adcae6c5bdec.fbx",
			"rotation":[
				0.70710688829422,
				0,
				0,
				0.7071066498756409
			],
			"scale":[
				0.009999999776482582,
				0.010000000707805157,
				0.010000000707805157
			]
		},
		{
			"children":[
				4
			],
			"name":"Sketchfab_model",
			"rotation":[
				-0.70710688829422,
				0,
				0,
				0.7071066498756409
			]
		}
	],
	"materials":[
		{
			"doubleSided":true,
			"name":"Material_17",
			"pbrMetallicRoughness":{
				"baseColorTexture":{
					"index":0
				},
				"metallicFactor":0,
				"roughnessFactor":0.6000000238418579
			}
		}
	],
	"meshes":[
		{
			"name":"AM115_026_22_Material #17_0",
			"primitives":[
				{
					"attributes":{
						"POSITION":0,
						"NORMAL":1,
						"TEXCOORD_0":2
					},
					"indices":3,
					"material":0
				}
			]
		}
	],
	"textures":[
		{
			"sampler":0,
			"source":0
		}
	],
	"images":[
		{
			"mimeType":"image/jpeg",
			"name":"Material_13_baseColor",
			"uri":"Material_13_baseColor.jpg"
		}
	],
	"accessors":[
		{
			"bufferView":0,
			"componentType":5126,
			"count":8194,
			"max":[
				33.20745849609375,
				6.720649719238281,
				33.59801483154297
			],
			"min":[
				-34.0810546875,
				-8.499298095703125,
				-33.69050598144531
			],
			"type":"VEC3"
		},
		{
			"bufferView":1,
			"componentType":5126,
			"count":8194,
			"type":"VEC3"
		},
		{
			"bufferView":2,
			"componentType":5126,
			"count":8194,
			"type":"VEC2"
		},
		{
			"bufferView":3,
			"componentType":5123,
			"count":22032,
			"type":"SCALAR"
		}
	],
	"bufferViews":[
		{
			"buffer":0,
			"byteLength":98328,
			"byteOffset":0,
			"target":34962
		},
		{
			"buffer":0,
			"byteLength":98328,
			"byteOffset":98328,
			"target":34962
		},
		{
			"buffer":0,
			"byteLength":65552,
			"byteOffset":196656,
			"target":34962
		},
		{
			"buffer":0,
			"byteLength":44064,
			"byteOffset":262208,
			"target":34963
		}
	],
	"samplers":[
		{
			"magFilter":9729,
			"minFilter":9987
		}
	],
	"buffers":[
		{
			"byteLength":306272,
			"uri":"RearRim_Inner.bin"
		}
	]
}
