{
	"asset":{
		"generator":"Khronos glTF Blender I/O v4.1.62",
		"version":"2.0"
	},
	"scene":0,
	"scenes":[
		{
			"name":"Scene",
			"nodes":[
				5
			]
		}
	],
	"nodes":[
		{
			"mesh":0,
			"name":"AM115_026_67_Material #4_0"
		},
		{
			"children":[
				0
			],
			"name":"AM115_026_67",
			"translation":[
				-1.5258788153005298e-05,
				0,
				0
			]
		},
		{
			"children":[
				1
			],
			"name":"AM115_026",
			"rotation":[
				-0.5,
				0.5,
				0.5,
				0.5
			]
		},
		{
			"children":[
				2
			],
			"name":"RootNode"
		},
		{
			"children":[
				3
			],
			"name":"eeff7b40aecd4dd1a8f4adcae6c5bdec.fbx",
			"rotation":[
				0.70710688829422,
				0,
				0,
				0.7071066498756409
			],
			"scale":[
				0.009999999776482582,
				0.010000000707805157,
				0.010000000707805157
			]
		},
		{
			"children":[
				4
			],
			"name":"Sketchfab_model",
			"rotation":[
				-0.70710688829422,
				0,
				0,
				0.7071066498756409
			]
		}
	],
	"materials":[
		{
			"doubleSided":true,
			"name":"Material_4",
			"pbrMetallicRoughness":{
				"baseColorTexture":{
					"index":0
				},
				"metallicFactor":0,
				"roughnessFactor":0.6000000238418579
			}
		}
	],
	"meshes":[
		{
			"name":"AM115_026_67_Material #4_0",
			"primitives":[
				{
					"attributes":{
						"POSITION":0,
						"NORMAL":1,
						"TEXCOORD_0":2
					},
					"indices":3,
					"material":0
				}
			]
		}
	],
	"textures":[
		{
			"sampler":0,
			"source":0
		}
	],
	"images":[
		{
			"mimeType":"image/jpeg",
			"name":"Material_4_baseColor",
			"uri":"Material_4_baseColor.jpg"
		}
	],
	"accessors":[
		{
			"bufferView":0,
			"componentType":5126,
			"count":4066,
			"max":[
				71.49256896972656,
				27.851943969726562,
				71.49258422851562
			],
			"min":[
				-71.49256896972656,
				-27.851940155029297,
				-71.4925765991211
			],
			"type":"VEC3"
		},
		{
			"bufferView":1,
			"componentType":5126,
			"count":4066,
			"type":"VEC3"
		},
		{
			"bufferView":2,
			"componentType":5126,
			"count":4066,
			"type":"VEC2"
		},
		{
			"bufferView":3,
			"componentType":5123,
			"count":23880,
			"type":"SCALAR"
		}
	],
	"bufferViews":[
		{
			"buffer":0,
			"byteLength":48792,
			"byteOffset":0,
			"target":34962
		},
		{
			"buffer":0,
			"byteLength":48792,
			"byteOffset":48792,
			"target":34962
		},
		{
			"buffer":0,
			"byteLength":32528,
			"byteOffset":97584,
			"target":34962
		},
		{
			"buffer":0,
			"byteLength":47760,
			"byteOffset":130112,
			"target":34963
		}
	],
	"samplers":[
		{
			"magFilter":9729,
			"minFilter":9987
		}
	],
	"buffers":[
		{
			"byteLength":177872,
			"uri":"FrontTire.bin"
		}
	]
}
